<svg id="visual" viewBox="0 0 900 600" width="900" height="600" xmlns="http://www.w3.org/2000/svg" xmlns:xlink="http://www.w3.org/1999/xlink" version="1.1"><rect x="0" y="0" width="900" height="600" fill="#FFFFFF"></rect><g transform="translate(476.37146598422873 310.6943510870588)"><path d="M115.7 -216C137.3 -187.8 133.6 -131.4 153.4 -90.7C173.3 -50 216.6 -25 217.2 0.3C217.8 25.7 175.6 51.3 152.1 85.7C128.6 120 123.8 163.1 101.6 178.1C79.3 193.1 39.7 180 -4.4 187.7C-48.5 195.3 -97 223.7 -132.7 216.4C-168.3 209.2 -191.1 166.3 -216.9 124.3C-242.6 82.3 -271.3 41.2 -269.9 0.8C-268.4 -39.5 -236.8 -79 -201.3 -104.1C-165.8 -129.2 -126.4 -140 -92.2 -160.9C-58 -181.8 -29 -212.9 9 -228.5C47 -244.1 94 -244.1 115.7 -216" fill="#4FACF7"></path></g></svg>