<svg version="1.1" id="Layer_1" xmlns="http://www.w3.org/2000/svg" xmlns:xlink="http://www.w3.org/1999/xlink" x="0px" y="0px" viewBox="0 0 500 500" style="width: 151px;" xml:space="preserve" data-imageid="team-success-5-73" imageName="Team Success 5" class="illustrations_image">
<style type="text/css">
	.st0_team-success-5-73{fill:#FF9F9F;}
	.st1_team-success-5-73{fill:url(#SVGID_1_);}
	.st2_team-success-5-73{fill:url(#SVGID_00000026879285112338906130000002115585591759020203_);}
	.st3_team-success-5-73{fill:url(#SVGID_00000027597735483535187340000010533229367270524812_);}
	.st4_team-success-5-73{fill:url(#SVGID_00000149361666687488589720000015681062464752703366_);}
	.st5_team-success-5-73{fill:url(#SVGID_00000139992500654037363900000000769317337203496327_);}
	.st6_team-success-5-73{fill:#68E1FD;}
	.st7_team-success-5-73{fill:#464DAA;}
	.st8_team-success-5-73{fill:#FFBEB3;}
	.st9_team-success-5-73{fill:#050817;}
	.st10_team-success-5-73{fill:#FFC866;}
	.st11_team-success-5-73{opacity:0.7;fill:#FF9F9F;enable-background:new    ;}
	.st12_team-success-5-73{fill:#DD582A;}
	.st13_team-success-5-73{fill:#8CCC00;}
	.st14_team-success-5-73{fill:#053855;}
	.st15_team-success-5-73{fill:#583228;}
</style>
<g id="background_team-success-5-73">
	<path class="st0_team-success-5-73" d="M243.2,418.1L11.6,281.2c-7.4-4.1-13.7-10.9-6.5-15.4l232.5-134c3.5-2.2,8.8-3.6,12.3-1.5l243.2,141.1&#10;&#9;&#9;c7.4,4.3,8.7,16.2,1.3,20.5L273.8,417.9C264.3,423.4,252.7,423.4,243.2,418.1z"/>
	
		<linearGradient id="SVGID_1_-team-success-5-73" gradientUnits="userSpaceOnUse" x1="460.7536" y1="333.7787" x2="399.9336" y2="167.0887" gradientTransform="matrix(1 0 0 -1 0 502)">
		<stop offset="0" style="stop-color:#053855"/>
		<stop offset="1" style="stop-color:#053855;stop-opacity:0"/>
	</linearGradient>
	<path class="st1_team-success-5-73" d="M456.6,313.2l-29.7-19.7h-22.7L358.1,316l39.3,31C416.2,334.7,436.2,324.8,456.6,313.2z"/>
	
		<linearGradient id="SVGID_00000080173030651824918500000003538158930729152442_-team-success-5-73" gradientUnits="userSpaceOnUse" x1="359.8887" y1="262.1051" x2="296.8187" y2="121.3251" gradientTransform="matrix(1 0 0 -1 0 502)">
		<stop offset="0" style="stop-color:#053855"/>
		<stop offset="1" style="stop-color:#053855;stop-opacity:0"/>
	</linearGradient>
	<path style="fill:url(#SVGID_00000080173030651824918500000003538158930729152442_);" d="M351.3,351.6l-18.8-5.7l-28,1l-43.9,21.8&#10;&#9;&#9;l36.3,22.8C315.8,379.2,333.7,365.5,351.3,351.6z"/>
	
		<linearGradient id="SVGID_00000029743202076000493970000008427763402371464636_-team-success-5-73" gradientUnits="userSpaceOnUse" x1="298.9132" y1="325.1283" x2="240.3432" y2="206.3083" gradientTransform="matrix(1 0 0 -1 0 502)">
		<stop offset="0" style="stop-color:#053855"/>
		<stop offset="1" style="stop-color:#053855;stop-opacity:0"/>
	</linearGradient>
	<path style="fill:url(#SVGID_00000029743202076000493970000008427763402371464636_);" d="M292,266.7l-18.8-5.7l-28,1l-43.9,21.8&#10;&#9;&#9;l55.6,35.6C275.8,307.2,291.6,299,292,266.7z"/>
	
		<linearGradient id="SVGID_00000014605749534959111240000013851023810390775707_-team-success-5-73" gradientUnits="userSpaceOnUse" x1="202.88" y1="380.53" x2="162.33" y2="166.55" gradientTransform="matrix(1 0 0 -1 0 502)">
		<stop offset="0" style="stop-color:#053855"/>
		<stop offset="1" style="stop-color:#053855;stop-opacity:0"/>
	</linearGradient>
	<path style="fill:url(#SVGID_00000014605749534959111240000013851023810390775707_);" d="M212.3,302.4l-18.8-5.7l-28,1l-43.8,21.8&#10;&#9;&#9;l36.3,22.8C176.8,330,194.6,316.3,212.3,302.4z"/>
	
		<linearGradient id="SVGID_00000026133595421599811690000008484980020055767455_-team-success-5-73" gradientUnits="userSpaceOnUse" x1="77.7104" y1="404.2499" x2="37.1604" y2="190.2599" gradientTransform="matrix(1 0 0 -1 0 502)">
		<stop offset="0" style="stop-color:#053855"/>
		<stop offset="1" style="stop-color:#053855;stop-opacity:0"/>
	</linearGradient>
	<polyline style="fill:url(#SVGID_00000026133595421599811690000008484980020055767455_);" points="50.7,268.5 19.6,285.4 33,294.5 &#10;&#9;&#9;66.6,275.2 &#9;"/>
</g>
<g id="arrow_team-success-5-73">
	<path class="st6_team-success-5-73 targetColor" d="M438.3,302.1c-2.8-2.7-5-6.1-7.2-9.3c-1.5-2-2.7-4.2-3.6-6.5l-11.2-8.4l-6-51.9l-9-2.1v71.2l43.2,25.2&#10;&#9;&#9;l15.9-9.1l-2.6-2C450.9,308.5,443.5,307,438.3,302.1z" style="fill: rgb(104, 225, 253);"/>
	<polygon class="st7_team-success-5-73" points="393,231.3 395.1,230.1 424.5,213.3 408.8,188.6 &#9;"/>
	<path class="st7_team-success-5-73" d="M442.9,300.4c-12.4-9.1-20.8-20.3-23.8-35.5c-1.7-8.8-3.1-17.7-4.4-26.6c-1.2-7.7-1.7-15.6-1.5-23.4l-8.8,1.9&#10;&#9;&#9;c-0.7,1.6,0.1,5.1,0.2,6.7c0.4,5.3,0.9,10.5,1.5,15.8c1.6,13.3,3.7,26.9,8.2,39.7c6,17.1,22.5,30.8,40,35.6l9-4.7&#10;&#9;&#9;C457.6,307.9,447.5,303.8,442.9,300.4z"/>
	<polyline class="st6_team-success-5-73 targetColor" points="408.8,188.6 404.2,188.6 388.4,229.4 393,231.3 &#9;" style="fill: rgb(104, 225, 253);"/>
</g>
<g id="character_3_team-success-5-73">
	<path class="st8_team-success-5-73" d="M268.4,255.9l-0.1-9.1l-8-0.3l-1.7,13.7C258.6,260.1,266.6,260.9,268.4,255.9z"/>
	<path class="st6_team-success-5-73 targetColor" d="M258.9,155.2c0,0-2.1,17.1-1.7,31s-1.3,59.2-1.3,59.2s10.7,5.1,17.2,2.1c0,0,2.6-30.1,2.9-40.1&#10;&#9;&#9;s-1.7-51.3-1.7-51.3" style="fill: rgb(104, 225, 253);"/>
	<path class="st9_team-success-5-73" d="M268.4,255.9c0,0-5,3.9-8.5,3c0,0,1.4-3.8,0.4-5.1s-1.7-0.3-2.2,1.1c-0.5,1.1-1,2.2-1.7,3.2&#10;&#9;&#9;c-0.1,0.1-0.3,0.3-0.4,0.4c-3.3,4.3-11.7,2.7-10.9,7.9c0.2,1.1,2.7,2.3,3.6,2.5c1.7,0.4,3.4,0.4,5.1,0c4.4-1.2,5.5-4,9.4-3.1&#10;&#9;&#9;s5.2-1.2,5.8-2.5S268.4,255.9,268.4,255.9z"/>
	<path class="st8_team-success-5-73" d="M281.1,241.6c1.5,10.2,3.6,26,3.6,27.4c-0.1,2,3.7,10.2,6.8-0.4c0,0,0.3-16.6,0.2-26.8&#10;&#9;&#9;C288.1,241.9,284.6,241.8,281.1,241.6z"/>
	<path class="st9_team-success-5-73" d="M282,270.6c0,0-0.6-3.2,1.6-3.4s4.6,0.3,4.9,2c0.2,1.2,0.3,2.5,0.3,3.7c0,0,2.5-7.8,3.2-7.7s1.4,2.6,1.4,3.6&#10;&#9;&#9;c-0.3,3.4-0.8,6.8-1.5,10.2c-0.5,1.5-3.8,6.9-8.5,7.6s-7-2.2-6.3-4.3S282,276.2,282,270.6z"/>
	<path class="st6_team-success-5-73 targetColor" d="M267.6,159.1c0,0,2.8,36.6,4,48.4s7,51.1,7,51.1s9.2,2.5,17.1-0.9c0,0-3.1-61.5-4.9-76.9&#10;&#9;&#9;c-2.3-20.2-6.5-30-6.5-30" style="fill: rgb(104, 225, 253);"/>
	<path class="st8_team-success-5-73" d="M281.5,120c0,0,17.3-2.2,19.4-3.8s1.4-22.6,1.6-24.2s5.8-3,6.8-1.2s3.6,22.9,2.3,28.5S283,136.4,283,136.4&#10;&#9;&#9;L281.5,120z"/>
	<path class="st8_team-success-5-73" d="M258,118.8c-1.4,2.4-5.2,16.5-5.2,16.5l-5.3-11.6c-1.4-2.6-2.9-6.4-4.5-8.8l-6,2.3c3.3,10,5.9,19.9,11.3,29&#10;&#9;&#9;c0.5,0.6,1,1.1,1.6,1.6c5.5,3.5,11.9-1.2,13.1-2.3l4.6-29.9C266.6,114.2,259.4,116.4,258,118.8z"/>
	<path class="st8_team-success-5-73" d="M284.8,121.3c-6.4-2.3-13.1-4-19.9-4.9H264c-1,5.2-3.2,10.2-6.4,14.5c2.9,1,19.7,5.9,25.9,7.2&#10;&#9;&#9;C291.6,120.1,289.1,127,284.8,121.3z"/>
	<path class="st8_team-success-5-73" d="M243.7,115.9c0,0,0.8-8.2-0.1-8.9s-1.7,0.3-1.7,0.3c-0.3-1.3-1.3-2.2-2.6-2.4c-2.2-0.2-5.9,3-6.3,4.7&#10;&#9;&#9;s4.3,7.9,4.3,7.9L243.7,115.9z"/>
	<path class="st8_team-success-5-73" d="M303,92.8c0,0-1.8-3.7-2.6-5.3s1.3-3,1.3-3c-0.3-1.7,0.8-3.4,2.5-3.8c0.1,0,0.2,0,0.3,0&#10;&#9;&#9;c3.4-0.5,5.5-0.2,6.6,1.7s-1.9,9.1-1.9,9.1"/>
	<path class="st10_team-success-5-73" d="M269.5,114.7c-0.6-0.1-8.2-0.7-11.5,3.8c-2.1,2.8-3.7,6-4.9,9.3l6.2,4.5l-1.8,29.2c0,0,8.6,4.8,15.3,4.1&#10;&#9;&#9;s14.5-4.5,14.5-4.5v-27.3l12-5.9l-2.5-11.2c0,0-12.5,1.8-14.7,1.6S280,116.4,269.5,114.7z"/>
	<path class="st8_team-success-5-73" d="M279.1,107.7l-9.7,2.3v9.7c2.8,1.8,6.4,1.8,9.3,0.2L279.1,107.7z"/>
	<path class="st11_team-success-5-73" d="M279.1,107.7l-9.7,2.3v9.7c2.8,1.8,6.4,1.8,9.3,0.2L279.1,107.7z"/>
	<path class="st9_team-success-5-73" d="M292.6,94c-0.5-3.3-3.5-5.6-6.8-5.2c0,0-0.1,0-0.1,0c-2.5,0.2-4.8,1.6-6.2,3.7c-5.4-2.2-11.8,0.1-14.3,3.4&#10;&#9;&#9;c-1.9,2.1-1.9,5.3,0,7.5l10,11.3c1.8-0.4,3.5-1,5.1-1.7c2.8-1.3,5.2-6.7,5.2-11.6c1,0.2,2.1,0.1,3.1-0.2&#10;&#9;&#9;C291.5,100.1,293.2,97.1,292.6,94z"/>
	<path class="st8_team-success-5-73" d="M265.2,103.4c0,0,0.2,14.3,4.1,15.2s6.7-2.1,7.4-3.5c0.4-0.8,0.6-1.6,0.7-2.5c0,0,3.6-1.6,3-3.7&#10;&#9;&#9;s-2.9,0.7-3.5,0.4s-2.2-0.7-2.3-3.5S268.6,105.8,265.2,103.4z"/>
</g>
<g id="character_2_team-success-5-73">
	<path class="st7_team-success-5-73" d="M350.2,126.6c-4.4,0.1-9.9-3.2-10.4-7.9c0.4,0,0.7,0,1.1,0c2.7-0.1,7.1-2.1,7.1-5.3s-4.1-3.6-6.3-2.7&#10;&#9;&#9;c-2.1,0.9-3.6,2.7-4,5c-0.6-0.3-1.1-0.6-1.5-1c-1.8-1.6-2.9-3.7-3.3-6c-0.2-1-0.2-2-0.1-3c1.1,0.4,2.2,0.4,3.3,0.2&#10;&#9;&#9;c2.7-0.6,6.2-4,3.7-6.8c-2.1-2.3-5.7-0.9-7.4,1.2c-0.4,0.5-0.7,1-1,1.5c-1-1-1.5-2.4-1.5-3.8c0-2.5,1.2-4.8,3.2-6.2&#10;&#9;&#9;c1.2-0.9-0.5-2.6-1.7-1.7c-3.3,2.5-4.7,6.8-3.4,10.7c0.5,1.4,1.3,2.6,2.4,3.5c-1.1,5.4,2,11.9,7.1,13.8c0.1,1.3,0.4,2.6,0.9,3.8&#10;&#9;&#9;c2.2,4.4,6.8,7.2,11.7,7c0.6-0.1,1.1-0.6,1.1-1.3C351.2,127.1,350.7,126.6,350.2,126.6z M340,116.1l1.3-2.4h0.1&#10;&#9;&#9;c0.7-0.7,1.6-1.2,2.6-1.3c0.5-0.1,1.1,0.1,1.4,0.6c0,0.1,0,0.2,0,0.3c0.3,1.1-1.7,2.2-2.3,2.4c-1,0.5-2.1,0.6-3.2,0.5&#10;&#9;&#9;C339.9,116.2,340,116.2,340,116.1z M336,100.3c0.5-0.2,1-0.1,1.4,0.2c1.3,1-0.1,2.6-1.4,2.9l0,0c-0.8,0.2-1.7,0.2-2.5,0&#10;&#9;&#9;C334.1,102.1,335.3,100.2,336,100.3L336,100.3z"/>
	<path class="st12_team-success-5-73" d="M138,151.1c-4.4,0.1-9.9-3.2-10.4-7.9c0.4,0,0.7,0,1.1,0c2.7-0.1,7.1-2.1,7.1-5.3s-4.1-3.6-6.3-2.7&#10;&#9;&#9;c-2.1,0.9-3.6,2.7-4,5c-0.6-0.3-1.1-0.6-1.5-1c-1.8-1.6-2.9-3.7-3.3-6c-0.2-1-0.2-2-0.1-3c1,0.4,2.2,0.4,3.3,0.2&#10;&#9;&#9;c2.7-0.6,6.2-4,3.7-6.8c-2.1-2.3-5.7-0.9-7.4,1.2c-0.4,0.5-0.7,1-1,1.5c-1-1-1.5-2.4-1.5-3.8c0-2.5,1.2-4.8,3.2-6.2&#10;&#9;&#9;c1.2-0.9-0.5-2.6-1.7-1.7c-3.3,2.5-4.7,6.8-3.4,10.7c0.5,1.4,1.3,2.6,2.4,3.5c-1.1,5.4,2,11.9,7.1,13.8c0.1,1.3,0.4,2.6,0.9,3.7&#10;&#9;&#9;c2.2,4.4,6.8,7.2,11.7,7c0.6-0.2,0.9-1,0.6-1.6C138.5,151.5,138.3,151.3,138,151.1z M127.8,140.6l1.3-2.4h0.1&#10;&#9;&#9;c0.7-0.7,1.6-1.2,2.6-1.3c0.5-0.1,1.1,0.1,1.4,0.6c0,0.1,0,0.2,0,0.3c0.3,1.1-1.7,2.2-2.3,2.4c-1,0.5-2.1,0.6-3.2,0.5&#10;&#9;&#9;C127.8,140.8,127.8,140.7,127.8,140.6z M123.8,124.9c0.5-0.2,1-0.1,1.3,0.2c1.3,1.1-0.1,2.6-1.4,2.9v0.1c-0.8,0.2-1.7,0.2-2.5,0&#10;&#9;&#9;C122,126.7,123.2,124.7,123.8,124.9L123.8,124.9z"/>
	<path class="st12_team-success-5-73" d="M366.1,153.6c-2.1-2-5.4-2.1-7.6-0.2c-1.9,1.6,0.9,4.4,2.7,2.7c0.8-0.7,2.1,0,2.6,0.7c1,1.3,0.9,3.4,0.6,4.9&#10;&#9;&#9;c-0.2,1,0.3,2.1,1.4,2.4c1,0.2,2.1-0.3,2.4-1.4C368.6,159.6,368.6,155.9,366.1,153.6z"/>
	<path class="st10_team-success-5-73" d="M200.5,76.3c-4.4-1.7-9.5,2-9.6,6.6c-0.1,2.5,3.8,2.5,3.9,0c0.1-1.9,1.8-3.3,3.7-3.2c0.3,0,0.7,0.1,1,0.2&#10;&#9;&#9;C201.8,80.9,202.8,77.2,200.5,76.3z"/>
	<path class="st12_team-success-5-73" d="M244.9,75.2c-2.5,0-2.5,3.9,0,3.9S247.4,75.2,244.9,75.2z"/>
	<path class="st13_team-success-5-73" d="M233.7,164c-2.5,0-2.5,3.9,0,3.9S236.2,164,233.7,164z"/>
	<path class="st10_team-success-5-73" d="M327.4,137.6l-4.6,7c-1.4,2.1,2,4,3.3,1.9c1.5-2.3,3.1-4.7,4.6-7C332.1,137.4,328.8,135.5,327.4,137.6z"/>
	<path class="st7_team-success-5-73" d="M155.5,106.5l-3.8-2.9c-0.9-0.5-2.1-0.2-2.6,0.7c-0.5,0.9-0.2,2.1,0.7,2.6l3.8,2.9c0.9,0.5,2.1,0.2,2.6-0.7&#10;&#9;&#9;C156.7,108.3,156.4,107.1,155.5,106.5z"/>
	<path class="st13_team-success-5-73" d="M277.3,65.5c-1-2.2-4.4-0.3-3.3,2c0.9,2-0.7,4.4-2.7,4.9c-2.5,0.6-4.9-1.5-5.7-3.7s-4.6-1.3-3.7,1&#10;&#9;&#9;c1.6,4.4,6.3,7.8,11.1,6.2c4-1.4,6-5.8,4.6-9.8C277.4,65.9,277.4,65.7,277.3,65.5z"/>
	<path class="st8_team-success-5-73" d="M296.4,206.2c0,0-4.8-2-5-2.6c-1-1.5-2.1-3-3.4-4.3c-0.6,0.7-0.7,1.7-0.2,2.5c0.8,1,1.4,1.5,1.1,1.9&#10;&#9;&#9;s-10.1-4.1-10.6-4.1s-0.3,1.6,0.8,2.3l1.8,1.1c0,0-2.7-0.7-2.8-0.3c-0.1,0.8,0.4,1.5,1.1,1.7c0,0-1.3,0.3-0.2,1.2&#10;&#9;&#9;c0.4,0.5,1,0.8,1.6,1c0,0-1.1-0.1-0.7,0.8s3.4,0.8,4,1.1s9.2,2.3,11.4,2.3S296.4,206.2,296.4,206.2z"/>
	<path class="st8_team-success-5-73" d="M307.3,169.1c-1.3-1.9-2.8-3.6-4.3-5.3c-0.8-0.6-7-1.6-7.6-2.4s4.7-1.1,5.3-0.9s-5.9-6.1-5.4-7.4&#10;&#9;&#9;s5.9,4.5,5.9,4.5s-5.1-6.3-4.3-7.1s5,5.5,5.6,5.4s-2.5-4.7-1.5-5.5s4.4,5.7,4.4,5.7s0-3.9,0.8-4.1s1,5.8,1.1,6.5s4.6,7.7,4.6,7.7"/>
	<path class="st12_team-success-5-73" d="M331.2,183c-1.2-0.9-22-21.3-22-21.3s-4.7,1.6-5.2,4.9c0,0,14,21.5,18.4,24.4"/>
	<path class="st14_team-success-5-73" d="M340.2,350.8l4.9-2.7l-1.2-7.1c0,0-7.4,0.7-8,3.3"/>
	<path class="st6_team-success-5-73 targetColor" d="M338.3,350.7c-1.1-0.7-2.3-1.3-3.4-1.9c-2.9-1.6-7-3.2-8.7-6.1c-0.7-1.2-0.6-2.7,0.2-3.8&#10;&#9;&#9;c2.6-3.1,8.2,2,11.1-1.5c0.6-0.7,0.8-11.6,0.8-11.6l11,3c0,0,1.9,21.9,1.6,23.2s-4,2.6-4,2.6c-1.1-0.2-2.2-0.6-3.2-1.2&#10;&#9;&#9;c-1.2-0.8-0.1-11.1-1.6-9.7s-2.1,7-2.1,7C339.5,350.9,338.9,350.8,338.3,350.7z" style="fill: rgb(104, 225, 253);"/>
	<path class="st14_team-success-5-73" d="M319.1,361.4l4.9-2.7l-1.2-7.1c0,0-7.4,0.7-8,3.3"/>
	<path class="st6_team-success-5-73 targetColor" d="M317.3,361.3c-1.1-0.7-2.3-1.3-3.4-1.9c-2.9-1.6-7-3.2-8.7-6.1c-0.7-1.2-0.6-2.7,0.2-3.8&#10;&#9;&#9;c2.6-3.1,8.2,2,11.1-1.5c0.6-0.7,0.8-11.6,0.8-11.6l11,3c0,0,1.9,21.9,1.6,23.2s-4,2.6-4,2.6c-1.1-0.2-2.2-0.6-3.2-1.2&#10;&#9;&#9;c-1.2-0.8-0.1-11.1-1.6-9.6s-2.1,7-2.1,7C318.5,361.4,317.9,361.4,317.3,361.3z" style="fill: rgb(104, 225, 253);"/>
	<path class="st14_team-success-5-73" d="M355,290.4l3.2,43.4c0,0-5.2,7.1-22.5,3.2l0,0l-0.2-29.3"/>
	<path class="st14_team-success-5-73" d="M334.9,299c0.4,3.7,0,45,0,45s-4.8,9-25.7,0l0.3-35"/>
	<path class="st14_team-success-5-73" d="M353.2,301.5c-5.4,3.1-11.2,5.7-17.1,7.5H336c-0.6-0.3-1.3,0-1.6,0.5c0,0,0,0,0,0c-3.7,1.1-7.4,1.9-11.2,2.5&#10;&#9;&#9;c-4.9,0.8-8.9-2.8-13.9-3.1c0.1-19.2-0.1-73.8,8.1-85.3l24.1-8.1c0.1,2,11.7,15.4,11.4,31.8c-0.2,14.6,0.6,29.1,2.2,43.6"/>
	<path class="st12_team-success-5-73" d="M315.1,201.8l2.2,22c0,0,18,0.7,25.8-4.6v-18.7"/>
	<path class="st12_team-success-5-73" d="M326.5,181.7c0,0-8.5,2.3-12,7.8c-2.7,4.2-4,19.7-4,19.7l-15.1-4.4c0,0-0.4,2.6-3.5,6.4c0,0,9,6.2,16.9,7.9&#10;&#9;&#9;s16.2-11.7,16.2-11.7s1.7,5.6,1.4-0.4"/>
	<path class="st10_team-success-5-73" d="M321.1,202.9c2.4-2.1,4.5-4.6,5.4-7.7c1-3.5-0.3-6.5-1.5-9.8c-1.3-3.2-2-6.6-2.2-10&#10;&#9;&#9;c-0.1-3.4,0.3-6.8,0.5-10.1c0-0.1,0-0.3-0.1-0.4c1.1-3.8,3.5-7,8.1-7.4c11.9-1,12.5,12.2,12.5,17.5s-0.7,9,3.3,11.2s6.8,8.1,3,12.8&#10;&#9;&#9;s-0.4,3,2.1,7.2s1.9,9.5-3.3,11.4s-29.1-1.7-31.3-3.9c-0.8-0.9-1.2-2-1.1-3.2C317,207.3,318.7,205,321.1,202.9z"/>
</g>
<g id="character_1_team-success-5-73">
	<path class="st8_team-success-5-73" d="M179,160.5c0,0-10.7-20.4,1-20.2l25.2-15.9l0.2-18.4l5.5-3.3c0,0,6.1,18.8,5,25.5s-18.1,19.4-22.3,22.3&#10;&#9;&#9;C187.9,154.3,179,160.5,179,160.5z"/>
	<polyline class="st6_team-success-5-73 targetColor" points="183.4,137.7 195.3,130 201.6,145.4 195.3,154.6 &#9;" style="fill: rgb(104, 225, 253);"/>
	<path class="st14_team-success-5-73" d="M184.9,294.8c0,0-0.7,2.3,0.5,3.6s14.8,8.7,21.2,6.9s5.7-3.8,5.6-4.9"/>
	<path class="st14_team-success-5-73" d="M165.8,302.2c-0.5,1.4-0.5,2.9-0.2,4.4c0.6,2.3,6.3,11.9,11.4,12.7s9.7-0.5,9.4-4.6"/>
	<path class="st8_team-success-5-73" d="M180.5,245.3c0,0-2.4,12.5-2.9,16.8s-2.6,37.6-2.6,37.6s-4.4,6.1-6.5,4.6s-3.7-28.4-2.8-39.1s2.9-26,2.9-26"/>
	<path class="st8_team-success-5-73" d="M197.4,233.1c0.3,0.6-3.9,58.2-3.9,58.2s-3.2,3.6-7,1.6c0,0-4.8-38.9,0.2-54.7"/>
	<path class="st9_team-success-5-73" d="M169.7,186.1c0,0-4.6,20.9-5.3,28.3s0.3,34,0.3,34s14.9,7.8,20.2-4.3c0,0,3,3.4,15.4-3.8c0,0,0.3-41-3.9-49.9&#10;&#9;&#9;S171,182.8,169.7,186.1z"/>
	<path class="st8_team-success-5-73" d="M164.3,141.7c-4.2,2.5-7.3,6.6-8.6,11.3c-2.2,8-6.6,23.7-7.1,26.2s-2.3,22.9-2.3,22.9s-2.2,6.4-2.2,8.2&#10;&#9;&#9;c0.1,1.5,0.3,2.9,0.7,4.4c0,0,2.6,2.3,3.8,2.3s4.9-0.5,5-1.4s-2.7-1.9-2.3-4.1s2-2.2,2.9-1.2s2-1.1,2-1.1s-3.3-3.9-4.9-5.6&#10;&#9;&#9;c0,0,6-21.2,7.1-24.3s5.3-12.8,6.6-13.7s5.9,0.8,9.3-9.3S164.3,141.7,164.3,141.7z"/>
	<path class="st6_team-success-5-73 targetColor" d="M196.8,148.8c-0.4-4.5-2.1-10-7-11.4c-1.5-0.4-3-0.5-4.6-0.2l-5.9,0.9l-7.7,1.1c0,0-6,0.9-7.3,2.6&#10;&#9;&#9;c0,0,7.3,3.6,7,11.4c-0.2,5.5-2.5,12.9-6.4,12.5c0,0,1.4,25.1,2.9,28.8c0,0,17.3,4,29.5-4.3C197.4,190.1,197.6,157.7,196.8,148.8z" style="fill: rgb(104, 225, 253);"/>
	<path class="st8_team-success-5-73" d="M174,130c0.2,1.8,0.2,3.6,0,5.4c-0.4,1.5-1.2,2.8-2.3,3.8c0,0,8.1,10.1,14.4,9s-2.6-10.4-2.6-10.4&#10;&#9;&#9;s0.7,0.2,0.6-2.7"/>
	<path class="st9_team-success-5-73" d="M167.8,295.5c0,0,0.7,7.2,2,5.8s-0.5-5.8,1.9-5.7s3.7-0.4,4,0.6s2.9,9.1,6.8,12.3s5.6,6.8,1.7,7.1&#10;&#9;&#9;c-1,0.1-2,0.6-2.8,1.3c-1.1,1.1-5.9,0.5-7.8-1.7s-7.8-11.2-7.8-13S166.1,295.9,167.8,295.5z"/>
	<path class="st9_team-success-5-73" d="M192.3,292c0,0-1.2-3,0.1-3.5s2.6-1.3,3.3-0.5s1.1,2.4,1.6,2.9s11.9,6.1,13.6,7.7s1.4,2.6,0.8,2.3&#10;&#9;&#9;s-1.2-0.8-1.5,0s-0.3,3.5-2.4,3.4s-6.3,0.2-8.6-1.7s-8.1-3.4-10.3-4.4s-4-1.9-4-3.4s0.2-6.2,1.1-6.4s0.6,2.7,2.1,3.4&#10;&#9;&#9;S192.3,292,192.3,292z"/>
	<path class="st0_team-success-5-73" d="M183.5,137.8L183.5,137.8L177,132l-2.5,2c0.6,0.8,1.3,1.6,2,2.4C178.7,138.2,181.6,139.7,183.5,137.8z"/>
	<path class="st15_team-success-5-73" d="M189.3,114.8c-0.5-0.6-1.2-1-2-1.1c-0.2-0.3-0.4-0.5-0.6-0.8c-0.9-1-2.1-1.5-3.4-1.6c-0.5,0-1,0.1-1.4,0.3&#10;&#9;&#9;c-0.7-0.4-1.6-0.7-2.4-0.8c-0.9-0.1-1.8,0.1-2.5,0.6c-1.2-0.5-2.6-0.4-3.7,0.1c-0.8,0.4-1.5,1-1.9,1.8c-1.4,0.2-2.6,1.1-3.3,2.4&#10;&#9;&#9;c-0.5,0.9-0.7,2-0.4,3c-0.8,1.1-1,2.5-0.4,3.8c0.3,0.5,0.6,1,1.1,1.4c0,0.1,0,0.3,0,0.4c0.3,1.8,0.9,3.4,1.9,4.9&#10;&#9;&#9;c0.4,0.6,0.9,1.2,1.4,1.7c0.4,0.4,0.7,0.7,1.1,1s0.3,0.5,0.2,0.2c0.1,0.8,0.6,1.6,1.4,1.9c1.7-1.1,3.1-2.8,3.8-4.7&#10;&#9;&#9;c0.2-0.3,0.5-0.3,0.7-0.2c0.1,0,0.1,0.1,0.2,0.2l7-7.5c1.7-0.4,3.1-1.6,3.7-3.3C190.4,117.3,190.2,115.9,189.3,114.8z"/>
	<path class="st8_team-success-5-73" d="M188.2,119.7c0.4-0.7,2.8,16.7-2.8,17.9s-8.8-5.5-8.8-5.5s-5.3-3-2.6-4.9s4,0.7,4,0.7s-1.3-7.5,2.2-6.9&#10;&#9;&#9;S186.8,122.5,188.2,119.7z"/>
	<path class="st9_team-success-5-73" d="M164.7,248.4l0.7,41.8c0,0,8.6,1.8,14.6,0l4.4-43.1l-1.2,36.3c0,0,8,2.2,14.3-0.2l2.9-43"/>
	<path class="st6_team-success-5-73 targetColor" d="M166,140.6c0,0-6.7,3.5-9.6,9.7c-2.2,4.7-5.4,14.2-5.4,14.2l11,6.3l4.9-4.4c0,0,6.1-7.8,6.3-12.2&#10;&#9;&#9;S171.5,140.9,166,140.6z" style="fill: rgb(104, 225, 253);"/>
	<path class="st8_team-success-5-73" d="M205.4,106c0,0-4-4.1-3.8-5.4c0.1-0.7,0.6-1.4,1.3-1.7c0,0-1.4-3.2,1.6-4.3s7.3-1.3,7.9,0s-1.4,8-1.4,8&#10;&#9;&#9;S207.4,108.2,205.4,106z"/>
</g>
<g id="plant_team-success-5-73">
	<path class="st6_team-success-5-73 targetColor" d="M48.1,253c0,0-2.3,19.6,8.1,23.5s16-6.1,16.1-23.5" style="fill: rgb(104, 225, 253);"/>
	<ellipse class="st15_team-success-5-73" cx="60.3" cy="253" rx="12.1" ry="7"/>
	<path class="st13_team-success-5-73" d="M63.4,237.5c0,0-4.8-6.9-2.7-11.6c0,0,1.7-3.1,4.1-3.5c0,0-0.2,6.5,2.2,5.7s0-6.8,0-6.8s2.5-3.4,5.3-3.3&#10;&#9;&#9;s0,6.1,1.9,5.1s0.1-6.1,2.3-6.7c2-0.5,4-0.8,6.1-1c0,0,2.1,5.9,0,6.8s-5.1,1.1-3.6,2.4s5.6-0.2,5.6-0.2s0.3,3.3-1.1,4.8&#10;&#9;&#9;s-9.6-1.8-8.2,1.1s6.9,1.4,6.9,1.4s-2.8,4-6.1,5.8S63.4,237.5,63.4,237.5z"/>
	<path class="st13_team-success-5-73" d="M64.5,254.6c0,0-3.4-3.4-2.8-6.3c0.3-1,1.1-1.9,2-2.4c0,0,0.6,3.7,1.9,3s-0.8-3.9-0.8-3.9s1.1-2.2,2.7-2.5&#10;&#9;&#9;s0.7,3.4,1.7,2.7s-0.6-3.5,0.6-4c1.1-0.5,2.2-0.9,3.3-1.2c0,0,1.8,3.1,0.7,3.9S71,245,72,245.6s3.1-0.7,3.1-0.7s0.5,1.9-0.1,2.8&#10;&#9;&#9;s-5.7,0-4.5,1.5s4.1,0.1,4.1,0.1c-0.7,1.5-1.6,2.8-2.8,3.9C70,254.7,64.5,254.6,64.5,254.6z"/>
	<path class="st13_team-success-5-73" d="M51.8,247.3c0,0-8.4,0.3-11.2-4c0,0-1.7-3.1-0.8-5.4c0,0,5.4,3.7,6,1.2s-5.8-3.7-5.8-3.7s-1.5-4,0-6.3&#10;&#9;&#9;s5.1,3.3,5.3,1.1s-5.1-3.4-4.4-5.5c0.7-1.9,1.5-3.8,2.4-5.6c0,0,6.1,1.5,5.7,3.6s-1.8,4.9,0.1,4.4s2.8-4.8,2.8-4.8s3,1.6,3.4,3.5&#10;&#9;&#9;s-6.7,7.2-3.5,7.5s4.9-5,4.9-5s1.9,4.5,1.6,8.2S51.8,247.3,51.8,247.3z"/>
	<path class="st14_team-success-5-73" d="M80.8,217.9c-0.9,0.8-1.8,1.5-2.7,2.3c0.1-0.9,0.2-1.9,0.3-2.8c0.1-0.5-0.7-0.7-0.8-0.2&#10;&#9;&#9;c-0.2,1.3-0.3,2.5-0.4,3.8c-2.3,2.1-4.7,4.2-6.8,6.5c-0.2-1.6-0.2-3.2-0.2-4.8c0-0.5-0.8-0.5-0.8,0c-0.1,1.9,0,3.7,0.2,5.6&#10;&#9;&#9;c-1.4,1.5-2.7,3.1-3.9,4.7c-1.4-1.9-2.3-4-2.7-6.3c-0.1-0.5-0.8-0.3-0.8,0.2c0.4,2.4,1.4,4.7,2.9,6.7c0,0,0,0.1,0.1,0.1&#10;&#9;&#9;c-3.7,4.9-5.8,10.7-6.1,16.8c0,0.2,0.2,0.4,0.4,0.4c0.2,0,0.4-0.2,0.4-0.4c0.3-5.9,2.3-11.5,5.9-16.2c3.2,0.9,6.5,1.2,9.8,1&#10;&#9;&#9;c0.5,0,0.5-0.8,0-0.8c-3.1,0.2-6.3-0.1-9.3-0.9c1.7-2.3,3.5-4.4,5.4-6.5H72c1.8,0.2,3.7,0.3,5.5,0.4c1.2,0.2,2.4,0,3.5-0.4&#10;&#9;&#9;c0.5-0.2,0.1-0.9-0.4-0.7c-1.3,0.6-3,0.3-4.4,0.2c-1.2-0.1-2.3-0.2-3.5-0.3c2.8-2.8,5.8-5.4,8.7-7.8&#10;&#9;&#9;C81.8,218.1,81.2,217.6,80.8,217.9z"/>
	<path class="st14_team-success-5-73" d="M56.4,233.3c0.1-0.2-0.1-0.4-0.3-0.5c-0.2-0.1-0.4,0.1-0.5,0.3c-0.9,2.9-2.6,5.5-5.1,7.3&#10;&#9;&#9;c-0.9-2.5-1.7-5-2.5-7.5c1.9-1.9,3.5-4.1,4.6-6.5c0.2-0.5-0.5-0.9-0.7-0.4c-1.1,2.2-2.5,4.3-4.2,6.1c-0.8-2.9-1.6-5.8-2.2-8.8&#10;&#9;&#9;c-0.1-0.5-0.9-0.3-0.8,0.2c0.8,4.1,1.9,8.1,3.1,12c-1.5-0.3-2.9-0.8-4.3-1.4c-0.5-0.2-0.8,0.5-0.4,0.7c1.6,0.8,3.3,1.3,5,1.6l0,0&#10;&#9;&#9;c0.8,2.6,1.8,5.2,2.8,7.7c-2.4-0.1-4.7-0.6-6.9-1.5c-0.5-0.2-0.9,0.5-0.4,0.7c2.4,1,5,1.6,7.6,1.6c1.3,3.1,2.6,6.3,4.2,9.3&#10;&#9;&#9;c0.2,0.4,0.9,0,0.7-0.4c-2-4.1-3.8-8.3-5.4-12.5l0,0C53.5,239.2,55.4,236.4,56.4,233.3z"/>
	<path class="st14_team-success-5-73" d="M70.7,243.5c-0.7,1.2-1.4,2.4-2.2,3.6c-0.3-0.3-0.5-0.7-0.7-1.1c-0.2-0.4-0.9-0.1-0.7,0.4&#10;&#9;&#9;c0.2,0.5,0.5,1,0.9,1.4l0,0l-2.3,4c-0.3-0.3-0.4-0.6-0.5-1c-0.1-0.5-0.9-0.5-0.8,0c0.1,0.6,0.4,1.2,0.9,1.6l-2.9,4.9&#10;&#9;&#9;c-0.1,0.2,0,0.4,0.1,0.5c0.2,0.1,0.4,0,0.5-0.1c1.3-2.2,2.6-4.3,3.9-6.5c0.7,0,1.3-0.1,1.9-0.3c0.5-0.2,0.3-0.9-0.2-0.8&#10;&#9;&#9;c-0.4,0.1-0.8,0.2-1.2,0.2l3.9-6.6c0-0.2-0.1-0.4-0.3-0.5C70.9,243.4,70.7,243.4,70.7,243.5z"/>
</g>
</svg>